<svg width="23" height="24" viewBox="0 0 23 24" fill="none" xmlns="http://www.w3.org/2000/svg">
<path d="M17.0224 14.3877C17.0224 15.3703 17.3087 15.7622 18.0574 15.7622C19.7261 15.7622 20.7886 13.6858 20.7886 10.2325C20.7886 4.95439 16.8499 2.42762 11.9324 2.42762C6.87365 2.42762 2.27245 5.7405 2.27245 12.0013C2.27245 17.9813 6.29745 21.238 12.4787 21.238C14.5774 21.238 15.9862 21.0134 18.1413 20.3115L18.6036 22.1914C16.4761 22.8664 14.2025 23.0617 12.4499 23.0617C4.34245 23.0617 0 18.7101 0 12.0001C0 5.23397 5.03245 0.629639 11.9612 0.629639C19.1775 0.629639 23 4.84092 23 10.0068C23 14.3865 21.5925 17.7274 17.1649 17.7274C15.1513 17.7274 13.8299 16.9413 13.6574 15.1995C13.1399 17.1367 11.7599 17.7274 9.89 17.7274C7.38875 17.7274 5.29 15.8452 5.29 12.0563C5.29 8.23802 7.1312 5.8797 10.4374 5.8797C12.1912 5.8797 13.2837 6.55351 13.7701 7.62037L14.605 6.13238H17.02V14.3877H17.0224ZM13.4873 10.6817C13.4873 9.13877 12.3074 8.49187 11.3299 8.49187C10.2661 8.49187 9.08859 9.33295 9.08859 11.8047C9.08859 13.77 9.97984 14.8649 11.3299 14.8649C12.2786 14.8649 13.4873 14.2754 13.4873 12.647V10.6817Z" fill="#0086E1"/>
</svg>
