<svg width="23" height="23" viewBox="0 0 23 23" fill="none" xmlns="http://www.w3.org/2000/svg">
<path d="M11.5 0.259277C5.26585 0.259277 0 5.39511 0 11.4753C0 17.5555 5.26585 22.6914 11.5 22.6914C17.7341 22.6914 23 17.5555 23 11.4753C23 5.39511 17.7341 0.259277 11.5 0.259277ZM11.5 5.8673C13.486 5.8673 14.95 7.29398 14.95 9.23212C14.95 11.1703 13.486 12.5969 11.5 12.5969C9.5151 12.5969 8.05 11.1703 8.05 9.23212C8.05 7.29398 9.5151 5.8673 11.5 5.8673ZM5.6281 16.8276C6.65965 15.3471 8.38005 14.3601 10.35 14.3601H12.65C14.6211 14.3601 16.3404 15.3471 17.3719 16.8276C15.9022 18.362 13.8172 19.3266 11.5 19.3266C9.18275 19.3266 7.0978 18.362 5.6281 16.8276Z" fill="#0086E1"/>
</svg>
