<svg width="23" height="23" viewBox="0 0 23 23" fill="none" xmlns="http://www.w3.org/2000/svg">
<path d="M14.6519 9.09684C16.8667 9.09684 18.2296 6.05248 18.2296 4.12973C18.2296 2.52744 17.3778 0.604687 15.6741 0.604687C13.4593 0.604687 12.0963 3.64904 12.0963 5.57179C12.0963 7.17409 12.9481 9.09684 14.6519 9.09684ZM8.17778 9.09684C9.88148 9.09684 10.7333 7.17409 10.7333 5.57179C10.7333 3.48881 9.37037 0.444458 7.15556 0.444458C5.45185 0.444458 4.6 2.36721 4.6 3.9695C4.42963 6.05248 5.79259 9.09684 8.17778 9.09684ZM20.7852 7.49455C18.5704 7.49455 17.037 10.3787 17.037 12.4617C17.037 13.9037 17.7185 15.3458 19.2519 15.3458C21.4667 15.3458 23 12.4617 23 10.3787C23 8.93661 22.1482 7.49455 20.7852 7.49455ZM5.96296 12.4617C5.96296 10.3787 4.25926 7.49455 2.21481 7.49455C0.681482 7.49455 0 8.93661 0 10.3787C0 12.4617 1.7037 15.3458 3.74815 15.3458C5.28148 15.3458 5.96296 13.9037 5.96296 12.4617ZM11.4148 12.1412C8.00741 12.1412 3.40741 17.2685 3.40741 20.7936C3.40741 22.3959 4.6 22.8766 5.96296 22.8766C8.00741 22.8766 9.54074 21.5947 11.4148 21.5947C13.1185 21.5947 14.6519 22.8766 16.5259 22.8766C17.8889 22.8766 19.4222 22.5561 19.4222 20.7936C19.4222 17.2685 14.8222 12.1412 11.4148 12.1412Z" fill="#0086E1"/>
</svg>
