<svg width="23" height="24" viewBox="0 0 23 24" fill="none" xmlns="http://www.w3.org/2000/svg">
<path d="M22.6929 6.44037C22.8889 6.59058 23 6.79337 23 7.00618V22.4458C23 22.8889 22.5328 23.2469 21.9545 23.2469H1.04545C0.467187 23.2469 0 22.8889 0 22.4458V1.61597C0 1.17283 0.467187 0.814819 1.04545 0.814819H14.9206C15.1983 0.814819 15.4662 0.899941 15.6622 1.05016L22.6929 6.44037ZM20.5889 7.3742L14.4403 2.66246V7.3742H20.5889ZM5.22727 11.2798C5.15795 11.2798 5.09148 11.3009 5.04246 11.3385C4.99345 11.376 4.96591 11.427 4.96591 11.4801V12.6818C4.96591 12.7349 4.99345 12.7859 5.04246 12.8234C5.09148 12.861 5.15795 12.8821 5.22727 12.8821H17.7727C17.842 12.8821 17.9085 12.861 17.9575 12.8234C18.0066 12.7859 18.0341 12.7349 18.0341 12.6818V11.4801C18.0341 11.427 18.0066 11.376 17.9575 11.3385C17.9085 11.3009 17.842 11.2798 17.7727 11.2798H5.22727ZM5.22727 14.6847C5.15795 14.6847 5.09148 14.7058 5.04246 14.7433C4.99345 14.7809 4.96591 14.8318 4.96591 14.8849V16.0867C4.96591 16.1398 4.99345 16.1907 5.04246 16.2283C5.09148 16.2659 5.15795 16.287 5.22727 16.287H11.2386C11.308 16.287 11.3744 16.2659 11.4234 16.2283C11.4725 16.1907 11.5 16.1398 11.5 16.0867V14.8849C11.5 14.8318 11.4725 14.7809 11.4234 14.7433C11.3744 14.7058 11.308 14.6847 11.2386 14.6847H5.22727Z" fill="#0086E1"/>
</svg>
